<?xml version="1.0" standalone="no"?>
<!DOCTYPE svg PUBLIC "-//W3C//DTD SVG 20010904//EN"
 "http://www.w3.org/TR/2001/REC-SVG-20010904/DTD/svg10.dtd">
<svg version="1.0" xmlns="http://www.w3.org/2000/svg"
 width="512.000000pt" height="512.000000pt" viewBox="0 0 512.000000 512.000000"
 preserveAspectRatio="xMidYMid meet">
<metadata>
Created by potrace 1.14, written by Peter Selinger 2001-2017
</metadata>
<g transform="translate(0.000000,512.000000) scale(0.100000,-0.100000)"
fill="#000000" stroke="none">
<path d="M2379 4996 c-2 -2 -35 -6 -74 -10 -38 -3 -81 -8 -95 -10 -14 -3 -41
-7 -60 -10 -67 -11 -95 -17 -175 -37 -104 -26 -222 -63 -304 -96 -65 -25 -287
-131 -326 -156 -137 -86 -257 -170 -350 -246 -77 -64 -298 -296 -364 -384
-138 -184 -246 -374 -324 -572 -44 -111 -87 -245 -78 -245 3 0 35 10 71 21 62
20 87 21 492 22 l427 1 28 64 c26 62 30 67 88 93 44 20 69 39 93 73 18 25 37
47 43 47 5 1 12 2 17 3 4 2 32 6 62 10 53 7 57 10 93 61 20 29 37 56 37 59 0
3 -48 6 -107 6 l-108 1 70 36 c53 27 81 36 115 34 25 -1 78 9 119 22 64 19 76
26 84 50 8 24 5 33 -14 53 -12 13 -37 29 -55 36 -29 10 -31 13 -22 39 7 21 5
36 -12 68 -11 23 -22 41 -24 41 -2 0 -20 -7 -39 -15 -53 -22 -59 -20 -52 18 5
24 2 37 -9 46 -18 15 -87 51 -97 51 -16 0 -93 -155 -91 -183 2 -24 -3 -31 -43
-48 -40 -18 -50 -29 -75 -81 l-28 -61 -12 56 c-14 61 -13 59 -122 103 -41 16
-50 25 -62 62 l-15 43 47 29 c26 16 53 30 60 30 6 0 12 5 12 10 0 6 5 10 11
10 15 0 87 52 132 94 20 20 39 36 42 36 2 0 -3 -16 -11 -35 l-14 -35 42 0 c41
0 44 2 61 45 20 48 100 115 137 115 33 0 85 -26 164 -80 40 -27 77 -50 82 -50
12 0 80 68 73 73 -2 2 -23 11 -45 21 -31 13 -47 28 -59 57 -20 43 -24 45 -110
54 -32 4 -63 9 -67 11 -18 11 -6 42 20 54 76 36 202 83 311 116 l44 13 -32
-33 -32 -33 95 -64 c94 -63 96 -65 96 -104 0 -32 -7 -46 -37 -77 l-37 -38 49
-99 48 -99 34 18 c20 11 51 44 77 85 l43 67 94 33 c123 43 229 85 255 102 14
9 38 58 68 133 25 65 46 123 46 128 0 5 -18 15 -41 22 -22 8 -43 18 -46 23 -3
6 -2 8 3 5 5 -3 43 -8 84 -12 124 -10 391 -70 475 -107 11 -5 49 -19 85 -32
36 -13 112 -48 169 -77 106 -53 112 -61 50 -74 -80 -16 -98 -23 -141 -54 -39
-27 -48 -40 -48 -63 0 -19 -6 -32 -17 -36 -10 -4 -20 -10 -23 -13 -3 -4 -31
-23 -64 -44 -64 -41 -64 -41 -33 -144 l12 -42 45 30 45 30 30 -34 c17 -18 45
-41 62 -50 l33 -16 16 37 c8 21 15 54 14 73 -4 108 -7 100 50 152 29 26 61 48
71 48 23 0 23 -1 3 -48 -9 -20 -17 -58 -18 -85 -2 -39 0 -46 13 -43 9 2 33 7
54 11 48 8 43 -3 -18 -42 -27 -17 -45 -35 -45 -47 0 -19 -43 -64 -104 -111
-31 -24 -32 -24 -94 -8 -61 15 -62 16 -62 49 0 39 -2 40 -35 18 -23 -15 -24
-18 -10 -50 l14 -34 -47 0 c-44 0 -48 -3 -68 -38 -12 -20 -38 -56 -59 -79 -29
-34 -46 -43 -83 -49 -26 -5 -50 -7 -54 -6 -14 4 -9 -5 27 -42 19 -21 35 -43
35 -51 0 -7 3 -20 6 -29 5 -13 -2 -16 -35 -16 -42 0 -150 -46 -152 -65 -4 -56
-3 -130 3 -146 5 -12 15 -19 26 -17 11 2 29 -9 43 -25 l24 -28 54 28 c46 23
57 35 71 72 9 25 30 55 46 67 49 40 61 51 65 63 2 6 31 18 64 26 l60 14 38
-39 c21 -22 54 -47 73 -56 37 -18 41 -29 19 -58 -24 -31 -19 -45 13 -37 25 7
60 56 62 88 0 6 -18 31 -39 55 -51 55 -29 65 33 14 36 -29 45 -43 51 -81 4
-33 17 -58 42 -86 20 -22 38 -38 40 -36 2 3 6 26 9 53 6 46 24 74 48 74 6 0
34 -31 61 -69 42 -58 55 -70 80 -71 57 -3 96 -10 118 -22 16 -10 114 -13 377
-14 376 -1 401 -3 478 -33 31 -11 49 -14 48 -7 -14 75 -107 311 -182 457 -264
517 -746 947 -1289 1151 -113 43 -326 105 -385 113 -14 2 -56 8 -95 14 -38 6
-86 14 -105 17 -40 6 -446 15 -451 10z m-849 -570 c0 -3 -4 -8 -10 -11 -5 -3
-10 -1 -10 4 0 6 5 11 10 11 6 0 10 -2 10 -4z m-60 -49 c0 -12 -72 -87 -83
-87 -9 0 7 61 19 71 8 6 14 8 14 5 0 -4 7 0 16 8 19 20 34 21 34 3z m2397
-136 c49 -36 51 -40 34 -55 -16 -14 -21 -12 -71 39 -43 43 -50 55 -34 55 11 0
43 -17 71 -39z"/>
<path d="M2757 4270 c-16 -10 -37 -16 -46 -13 -14 3 -20 -2 -23 -21 -4 -21 1
-31 24 -48 32 -23 46 -19 102 25 l28 22 -22 28 c-25 31 -26 31 -63 7z"/>
<path d="M1652 4249 l-32 -21 22 -18 c38 -29 65 -40 97 -40 28 0 31 3 31 33 0
28 -5 34 -40 50 -48 20 -38 21 -78 -4z"/>
<path d="M3015 4018 c2 -17 10 -37 19 -43 18 -14 20 -76 6 -160 -4 -27 -7 -51
-5 -53 10 -11 93 22 121 49 l34 33 -33 32 c-17 18 -45 65 -61 103 -25 64 -31
71 -56 71 -25 0 -27 -3 -25 -32z"/>
<path d="M2948 3928 c-26 -9 -28 -13 -22 -51 9 -56 17 -62 53 -41 32 19 32 22
10 82 -5 12 -10 22 -11 21 -2 0 -15 -5 -30 -11z"/>
<path d="M1833 3698 l10 -61 24 29 c12 16 23 34 23 40 0 9 -52 54 -63 54 -2 0
1 -28 6 -62z"/>
<path d="M3178 3291 c-82 -12 -62 -18 63 -18 77 0 117 3 111 9 -13 13 -115 18
-174 9z"/>
<path d="M382 3118 c-93 -16 -177 -84 -220 -177 -26 -56 -26 -58 -27 -331 -1
-151 3 -297 8 -325 17 -93 83 -176 176 -219 l46 -21 2176 0 c2013 -1 2181 0
2228 16 94 30 174 117 197 214 6 22 9 171 9 330 l-1 290 -28 54 c-36 70 -85
117 -155 149 l-56 26 -2157 1 c-1186 0 -2174 -3 -2196 -7z m3713 -142 c28 -7
62 -19 77 -25 l28 -10 -20 -50 c-51 -129 -48 -125 -72 -109 -51 33 -186 50
-226 29 -26 -14 -29 -52 -6 -76 9 -9 55 -34 103 -57 47 -22 88 -43 91 -47 3
-3 18 -13 34 -21 56 -29 96 -108 96 -189 0 -92 -55 -173 -148 -217 -50 -24
-71 -28 -162 -30 -106 -3 -193 12 -235 40 -18 12 -20 23 -20 100 2 90 6 106
28 88 21 -18 164 -53 217 -54 61 0 100 22 100 57 0 34 -19 49 -133 105 -166
80 -201 125 -201 251 0 85 20 130 77 174 82 62 237 79 372 41z m-2842 -46 c16
-30 48 -91 72 -135 23 -44 75 -143 115 -220 40 -77 74 -141 75 -143 2 -2 1 87
0 198 -2 114 1 202 6 206 5 3 6 11 2 17 -5 7 -8 40 -9 74 l0 61 95 -2 96 -2 2
-402 2 -402 -144 0 -144 0 -33 68 c-19 37 -64 123 -100 192 -37 69 -87 166
-112 215 -25 50 -46 86 -47 80 0 -5 0 -53 1 -105 2 -52 3 -174 3 -270 l0 -175
-96 -3 -97 -3 0 399 c0 219 2 401 5 403 2 3 66 5 142 5 l137 0 29 -56z m1106
-32 l-1 -88 -129 0 -129 0 0 -63 0 -62 118 0 117 0 3 -87 3 -88 -121 0 -120 0
0 -75 0 -75 53 -1 c28 -1 87 -1 130 0 l77 1 0 -90 0 -90 -239 0 -239 0 0 403
0 403 239 0 239 0 -1 -88z m281 80 c0 -13 2 -22 10 -44 11 -27 23 -92 24 -126
1 -14 4 -24 7 -22 4 2 9 -13 13 -34 4 -20 22 -109 40 -197 32 -155 37 -165 51
-90 21 121 104 486 115 505 7 12 30 15 104 15 l96 1 10 -36 c31 -117 115 -525
113 -547 0 -7 3 -13 8 -13 5 0 9 12 9 26 0 15 9 65 20 113 10 47 35 160 55
251 19 91 37 174 40 185 4 19 13 20 110 21 93 1 105 -1 101 -15 -3 -9 -40
-158 -82 -331 -42 -173 -80 -316 -84 -318 -5 -2 -6 -11 -4 -20 2 -9 -2 -39 -9
-67 l-13 -50 -131 -3 -130 -3 -6 28 c-6 28 -54 251 -63 288 -2 11 -6 34 -9 50
-3 17 -11 62 -19 100 l-13 70 -12 -56 c-6 -30 -14 -69 -17 -85 -3 -16 -10 -47
-16 -69 -6 -22 -12 -49 -13 -60 -2 -11 -6 -31 -9 -45 -3 -14 -8 -36 -11 -50
-2 -14 -12 -58 -21 -98 l-17 -73 -129 2 -128 1 -6 26 c-4 15 -24 96 -45 180
-21 84 -41 165 -44 180 -3 15 -27 113 -54 219 -27 106 -47 193 -46 195 8 7
205 4 205 -4z"/>
<path d="M225 1930 c3 -10 8 -27 10 -37 14 -65 87 -255 137 -358 91 -184 226
-396 318 -497 8 -9 35 -41 60 -70 35 -41 181 -182 273 -263 26 -22 141 -106
168 -122 16 -10 29 -21 29 -25 0 -4 4 -8 10 -8 5 0 35 -16 67 -36 117 -75 388
-204 429 -204 8 0 17 -7 20 -15 4 -8 10 -12 15 -9 5 3 44 -6 87 -20 98 -32
186 -52 332 -77 94 -16 108 -17 285 -24 88 -4 166 -8 173 -10 6 -3 12 -1 12 3
0 4 19 7 43 8 103 1 248 22 412 58 476 104 979 411 1294 791 36 44 71 85 77
92 24 25 165 243 206 318 72 132 174 382 201 496 l7 27 -61 -25 c-46 -19 -82
-25 -158 -27 -54 -2 -103 -6 -109 -10 -6 -3 -16 -23 -22 -44 -7 -20 -16 -41
-21 -46 -5 -6 -9 -15 -9 -22 0 -33 -128 -273 -204 -384 -114 -166 -289 -355
-436 -470 -38 -29 -31 -20 38 59 45 51 82 98 82 103 0 5 -5 18 -11 29 -9 17
-3 27 45 71 l56 51 -41 44 -40 44 63 51 c35 27 74 56 88 63 14 7 38 27 53 43
27 28 28 31 16 73 -7 25 -13 108 -13 194 l-1 150 -374 0 c-205 0 -378 -3 -384
-7 -6 -3 -11 -35 -12 -69 -1 -51 4 -72 28 -116 l29 -54 -22 -52 c-18 -42 -23
-72 -24 -162 -1 -108 0 -113 45 -235 53 -143 77 -241 78 -325 1 -52 22 -55
102 -14 45 24 68 30 106 27 l48 -3 -40 -28 c-144 -99 -273 -171 -413 -231 -45
-19 -83 -35 -85 -35 -1 0 -15 -5 -32 -11 -114 -43 -336 -93 -475 -107 -155
-14 -396 -9 -540 12 -174 25 -361 79 -524 152 -55 24 -102 46 -104 48 -3 3 7
14 22 26 16 12 36 40 46 63 15 36 24 43 71 59 l54 19 42 105 c40 99 41 107 28
134 -14 26 -13 30 18 70 28 37 40 44 93 56 61 14 62 14 83 66 12 29 28 64 36
78 8 14 13 28 11 30 -3 2 -7 45 -11 94 l-6 90 51 73 c44 62 53 81 56 127 2 29
5 59 6 66 2 6 -12 21 -31 32 -34 20 -48 21 -627 21 l-592 1 -11 -37 c-11 -35
-9 -43 23 -100 19 -35 49 -92 68 -127 34 -67 57 -93 148 -176 31 -28 69 -68
85 -90 29 -39 30 -43 30 -155 0 -100 3 -121 23 -161 l23 -46 -18 -71 -18 -71
-75 60 c-97 77 -221 197 -304 295 -65 75 -186 245 -186 260 0 4 -6 15 -14 23
-23 26 -100 180 -141 281 -21 52 -42 99 -46 104 -4 5 -53 10 -108 12 -78 2
-113 8 -161 27 -55 23 -60 23 -55 7z"/>
</g>
</svg>
